<?xml version="1.0" encoding="UTF-8"?>
<svg version="1.1" xmlns="http://www.w3.org/2000/svg" width="5001" height="3461">
<path d="M0 0 C1.13112213 0.00182281 2.26224426 0.00364563 3.42764282 0.00552368 C19.81822731 0.05005267 35.89253486 0.38160446 52.0625 3.3125 C53.04460449 3.48410645 54.02670898 3.65571289 55.03857422 3.83251953 C84.98674423 9.19529793 113.21761872 19.01126875 140.0625 33.3125 C141.12428467 33.8684082 141.12428467 33.8684082 142.20751953 34.43554688 C159.26211862 43.39713293 174.43151892 54.39111626 189.18212891 66.74072266 C190.96050076 68.22724018 192.75058401 69.69840736 194.54296875 71.16796875 C208.28928635 82.56143744 221.11615418 95.19747513 232.0625 109.3125 C233.54058116 111.06341693 235.01978442 112.81338712 236.5 114.5625 C285.28701107 174.42593819 297.22604929 252.33068093 289.671875 327.18310547 C282.46730871 391.76570495 261.50025507 454.12428628 233.0625 512.3125 C232.72416138 513.00531067 232.38582275 513.69812134 232.03723145 514.41192627 C223.57838648 531.7085967 214.88402942 548.84253761 205.52050781 565.66992188 C203.96879034 568.48234484 202.44614186 571.30904027 200.9296875 574.140625 C194.94791219 585.30606202 188.78703748 596.33317447 182.359375 607.24829102 C178.2013737 614.31999107 174.16857282 621.45241877 170.1875 628.625 C162.74016203 642.01073134 154.93016787 655.17062382 147.0625 668.3125 C146.43730469 669.35905762 145.81210938 670.40561523 145.16796875 671.48388672 C136.28479163 686.35385768 127.31167068 701.16875737 118.31037903 715.96739197 C115.77937129 720.12978789 113.25544132 724.29642058 110.734375 728.46484375 C102.79481484 741.58679464 94.76911899 754.64902736 86.6171875 767.640625 C82.12636329 774.79764739 77.68302056 781.98376999 73.2421875 789.171875 C71.10894908 792.62443934 68.96779994 796.0719064 66.8203125 799.515625 C56.07166004 816.77084666 45.80268227 834.29709024 35.57226562 851.86303711 C32.36574266 857.36841882 29.15206591 862.86946414 25.92578125 868.36328125 C25.57409882 868.96214645 25.22241638 869.56101166 24.8600769 870.17802429 C24.50599762 870.78096817 24.15191833 871.38391205 23.78710938 872.00512695 C12.33564911 891.50608828 0.99361033 911.06642119 -10.09692383 930.77539062 C-13.95674211 937.61894807 -17.89985462 944.41039283 -21.875 951.1875 C-27.30505166 960.44928697 -32.5956407 969.78147433 -37.82348633 979.15869141 C-42.97504581 988.39721743 -48.21156994 997.58510208 -53.47412109 1006.76074219 C-60.62581516 1019.23146398 -67.74252667 1031.72116503 -74.80493164 1044.24267578 C-78.77518149 1051.27475328 -82.78167638 1058.28563867 -86.79760742 1065.29168701 C-93.14403678 1076.36511466 -99.39197134 1087.48721101 -105.5715332 1098.65478516 C-109.80275252 1106.29369413 -114.10133916 1113.89021901 -118.45019531 1121.46264648 C-122.93360159 1129.27861814 -127.33001439 1137.14213697 -131.72241211 1145.00952148 C-135.46067368 1151.6975494 -139.24440274 1158.35728997 -143.0625 1165 C-151.80646637 1180.24667323 -160.27120727 1195.62865751 -168.00634766 1211.41357422 C-169.61709713 1214.69842199 -171.24381599 1217.97525941 -172.875 1221.25 C-173.20491943 1221.91298096 -173.53483887 1222.57596191 -173.87475586 1223.2590332 C-176.2520462 1228.0095836 -178.73575024 1232.69585587 -181.25 1237.375 C-185.38587198 1245.09252629 -189.16919739 1252.96113474 -192.92114258 1260.87109375 C-196.46868844 1268.34980461 -200.12184242 1275.76569766 -203.85253906 1283.15429688 C-205.08412397 1285.60416425 -206.30430029 1288.05953996 -207.5234375 1290.515625 C-211.93767849 1299.3987967 -216.39796061 1308.24532697 -221.0625 1317 C-224.80852025 1324.03962971 -228.3003605 1331.16933307 -231.68188477 1338.39038086 C-236.58194218 1348.85301728 -241.74654588 1359.15452208 -247.25 1369.3125 C-249.89945785 1374.20307631 -252.20868665 1379.01800912 -253.9375 1384.3125 C-248.54004223 1378.43016423 -243.34349785 1372.43506529 -238.3203125 1366.23046875 C-235.72994152 1363.05832593 -233.09067133 1359.93206706 -230.4375 1356.8125 C-227.06453063 1352.84358112 -223.72573022 1348.85232569 -220.4375 1344.8125 C-214.89557902 1338.00836214 -209.20441077 1331.33274122 -203.52148438 1324.64648438 C-198.8023039 1319.09181966 -194.09674951 1313.53190075 -189.5 1307.875 C-185.08836945 1302.45679421 -180.54426358 1297.1597915 -175.98828125 1291.86328125 C-169.76227633 1284.62433876 -163.5766376 1277.35384091 -157.5625 1269.9375 C-153.39528876 1264.81436933 -149.07437543 1259.83655072 -144.73486328 1254.85986328 C-141.57297557 1251.22530797 -138.46907059 1247.55738132 -135.4375 1243.8125 C-131.31856834 1238.72440794 -127.03602666 1233.79246177 -122.734375 1228.859375 C-119.57270769 1225.22493501 -116.46892528 1221.55720182 -113.4375 1217.8125 C-109.35928284 1212.77821728 -105.13132942 1207.88739292 -100.87719727 1203.00219727 C-96.89033667 1198.42133911 -92.9493092 1193.80499713 -89.03613281 1189.16113281 C-85.65268136 1185.14865915 -82.23659223 1181.16531439 -78.8125 1177.1875 C-75.231189 1173.02569863 -71.70591707 1168.8298063 -68.25 1164.5625 C-64.69482096 1160.18098205 -60.96980463 1155.99539319 -57.171875 1151.82421875 C-54.93615467 1149.31098768 -52.80372318 1146.73938521 -50.6875 1144.125 C-45.47231485 1137.68538007 -40.02418248 1131.45794597 -34.58398438 1125.20898438 C-32.00112566 1122.23394782 -29.43696602 1119.24302964 -26.875 1116.25 C-26.13757568 1115.38882568 -26.13757568 1115.38882568 -25.38525391 1114.51025391 C-23.90231751 1112.77796992 -22.41982673 1111.0453057 -20.9375 1109.3125 C-14.24781366 1101.49241121 -7.53917166 1093.68983785 -0.79321289 1085.91821289 C2.84069843 1081.72932391 6.45743745 1077.52623264 10.0625 1073.3125 C15.81986847 1066.58435179 21.61671872 1059.8909632 27.42138672 1053.20361328 C30.13671214 1050.07464709 32.84951495 1046.94349539 35.5625 1043.8125 C38.82295448 1040.04968238 42.08395057 1036.28734206 45.34765625 1032.52734375 C46.44015872 1031.2682765 47.53260681 1030.00916206 48.625 1028.75 C49.16165283 1028.13157227 49.69830566 1027.51314453 50.2512207 1026.87597656 C53.42784388 1023.21126972 56.58615377 1019.53167739 59.73291016 1015.84130859 C63.83433604 1011.03233065 67.97196704 1006.27934142 72.25 1001.625 C75.42080742 998.17234304 78.44285031 994.65719034 81.375 991 C86.01070366 985.25271553 91.02017901 979.90281566 96.06640625 974.51953125 C100.45492781 969.83655056 104.63369672 964.98833043 108.796875 960.10546875 C114.37927865 953.56387066 120.01609999 947.10126832 125.828125 940.76171875 C128.35652372 937.99020476 130.82434 935.17122997 133.28515625 932.33984375 C135.35609487 929.97760827 137.45762848 927.64454147 139.5625 925.3125 C144.35050179 920.0014392 149.08437651 914.65118649 153.70703125 909.1953125 C159.50458981 902.36496693 165.42372114 895.69012018 171.54833984 889.15087891 C174.90350925 885.56803366 178.18932904 881.94154028 181.3984375 878.2265625 C185.65482323 873.33071976 190.04288447 868.54898699 194.390625 863.734375 C197.80555638 859.94775041 201.21236526 856.15666383 204.5625 852.3125 C208.6733312 847.59546328 212.8702966 842.95715031 217.0625 838.3125 C218.5418123 836.66679756 220.02097946 835.02096465 221.5 833.375 C224.71572422 829.80010239 227.94789909 826.24076877 231.1875 822.6875 C233.93176449 819.67468364 236.65270429 816.65000155 239.3125 813.5625 C243.39575816 808.85703107 247.68712298 804.34533339 251.94824219 799.80175781 C254.87067217 796.68003586 257.77439954 793.55580053 260.5625 790.3125 C264.46460454 785.77975231 268.57954332 781.44588745 272.66796875 777.08203125 C276.32303101 773.17969205 279.95633304 769.26007921 283.5625 765.3125 C293.68957794 754.23785921 303.9844602 743.31743726 314.25390625 732.375 C316.84961062 729.60839333 319.44015654 726.83707248 322.02734375 724.0625 C333.95395572 711.2840928 333.95395572 711.2840928 339.9375 705.5 C341.763612 703.62017882 343.4598791 701.69956879 345.1640625 699.7109375 C349.66411205 694.52855262 354.55152537 689.75276588 359.4375 684.9375 C361.23925401 683.1611586 363.03885183 681.38262661 364.8359375 679.6015625 C365.62403809 678.82506348 366.41213867 678.04856445 367.22412109 677.24853516 C369.12012341 675.44024043 369.12012341 675.44024043 370.0625 673.3125 C370.7225 673.3125 371.3825 673.3125 372.0625 673.3125 C372.41377205 672.47325233 372.41377205 672.47325233 372.7721405 671.61705017 C374.3841808 668.73798605 376.3676208 666.76811246 378.70825195 664.43969727 C379.1784375 663.96921967 379.64862305 663.49874207 380.13305664 663.01400757 C381.68426999 661.46418413 383.24244505 659.92156478 384.80078125 658.37890625 C385.88497396 657.29844779 386.96872291 656.21754387 388.05204773 655.13621521 C390.90460996 652.29128113 393.76312008 649.45239726 396.6229248 646.61474609 C399.51976791 643.73828766 402.41103549 640.85623762 405.30273438 637.97460938 C410.40219083 632.8942788 415.50653163 627.81890149 420.61445618 622.74708557 C424.75903049 618.62529628 428.88634026 614.48665324 433.00463867 610.33862305 C437.7137582 605.59701735 442.42780658 600.86034583 447.14480114 596.12657452 C449.99200084 593.26888154 452.83727528 590.40932183 455.6784668 587.5456543 C458.43553038 584.76693013 461.19738984 581.99305859 463.9627018 579.22254372 C465.01506004 578.16648419 466.06565358 577.10866316 467.1144619 576.04907799 C468.57457513 574.57453569 470.04073688 573.1062813 471.50854492 571.6394043 C472.34173752 570.80177048 473.17493011 569.96413666 474.03337097 569.10112 C476.0625 567.3125 476.0625 567.3125 478.0625 567.3125 C478.0625 566.6525 478.0625 565.9925 478.0625 565.3125 C479.28515625 564.11328125 479.28515625 564.11328125 481.125 562.625 C485.51073843 558.91158511 489.52726235 554.8965711 493.5625 550.8125 C498.01383394 546.31644547 502.47156957 541.9324866 507.30859375 537.84765625 C509.32083482 536.08638512 511.18621986 534.21770161 513.0625 532.3125 C515.50913437 529.83286671 517.98357774 527.45809624 520.625 525.1875 C524.66604606 521.7123598 528.55044108 518.08249 532.4375 514.4375 C537.46635111 509.72461384 542.52484513 505.05379289 547.6640625 500.4609375 C550.35309367 498.05219622 553.02053872 495.6206455 555.6875 493.1875 C561.14510794 488.22465429 566.66766736 483.35188822 572.28125 478.56640625 C573.47930775 477.5444362 574.6772201 476.52229569 575.875 475.5 C576.48102051 474.98284424 577.08704102 474.46568848 577.71142578 473.93286133 C581.45282262 470.7277347 585.12348478 467.46056271 588.75 464.125 C593.05644037 460.17586255 597.50116179 456.4620087 602.046875 452.79296875 C605.6092074 449.86281192 609.08709453 446.84474761 612.5625 443.8125 C618.63292257 438.5222335 624.80212684 433.3772831 631.0625 428.3125 C632.83363716 426.85453568 634.60446428 425.39619464 636.375 423.9375 C642.27745033 419.10822245 648.27428231 414.40387089 654.28173828 409.70654297 C656.56286237 407.92079872 658.83883054 406.12855603 661.11474609 404.33618164 C663.45602967 402.49352345 665.80026445 400.65464414 668.14501953 398.81640625 C669.47213705 397.77552976 670.79859089 396.73380672 672.12451172 395.69140625 C683.60722294 386.66983408 695.25403283 377.90292703 707.0625 369.3125 C707.82594727 368.75675293 708.58939453 368.20100586 709.37597656 367.62841797 C725.06752856 356.21972875 740.84369057 344.96150477 757.0625 334.3125 C757.90554687 333.75691406 758.74859375 333.20132812 759.6171875 332.62890625 C780.05202241 319.16970195 800.71873711 306.28267907 822.0625 294.3125 C822.85285645 293.86777344 823.64321289 293.42304688 824.45751953 292.96484375 C829.64242483 290.04989804 834.84369107 287.16629339 840.0625 284.3125 C841.08126221 283.7546582 841.08126221 283.7546582 842.12060547 283.18554688 C928.09537474 236.3240288 1028.12086487 205.09323716 1165.0625 230.3125 C1179.90228694 234.8604148 1194.06391305 240.63889532 1208.0625 247.3125 C1209.10712402 247.79904053 1209.10712402 247.79904053 1210.17285156 248.29541016 C1234.43957991 259.60855657 1257.7588183 275.5267112 1277.33203125 293.79296875 C1279.46729423 295.76327579 1281.62820908 297.67051724 1283.828125 299.56640625 C1295.20347707 309.48725332 1305.82132221 320.38236072 1315.0625 332.3125 C1315.98472261 333.42613368 1316.91076921 334.53660751 1317.83984375 335.64453125 C1351.96712475 376.65728712 1371.1152156 428.69240928 1377.0625 481.3125 C1377.15821289 482.12364258 1377.25392578 482.93478516 1377.35253906 483.77050781 C1378.45786299 494.70093336 1378.30640713 505.71331705 1378.3125 516.6875 C1378.31351212 518.32471008 1378.31351212 518.32471008 1378.31454468 519.99499512 C1378.24571416 590.2329993 1359.16750515 660.78294913 1332.0625 725.3125 C1331.55750977 726.51487305 1331.05251953 727.71724609 1330.53222656 728.95605469 C1322.80654705 747.27165199 1314.57358495 765.34864538 1306.0625 783.3125 C1305.5576709 784.38000488 1305.0528418 785.44750977 1304.53271484 786.54736328 C1296.35395672 803.78970825 1287.83707733 820.86425046 1279.3125 837.9375 C1278.78088257 839.0034137 1278.24926514 840.06932739 1277.70153809 841.1675415 C1270.9802955 854.635708 1264.13456765 868.02523508 1257.0625 881.3125 C1256.36762189 882.62260647 1255.67295218 883.93282349 1254.97851562 885.24316406 C1253.05331521 888.87318914 1251.12183425 892.49983499 1249.1875 896.125 C1248.84800323 896.76136383 1248.50850647 897.39772766 1248.15872192 898.05337524 C1236.39717529 920.09060894 1224.30373358 941.93921137 1212.14208984 963.7578125 C1204.96060161 976.64230122 1197.83216361 989.55006354 1190.83544922 1002.53588867 C1186.63699737 1010.30553362 1182.30478201 1017.99353041 1177.93701172 1025.66894531 C1173.49259026 1033.49978348 1169.20185098 1041.4076236 1164.93530273 1049.33642578 C1161.24887071 1056.16929918 1157.46787664 1062.94153011 1153.625 1069.6875 C1148.98556482 1077.83452747 1144.48438864 1086.04543768 1140.0625 1094.3125 C1135.12766052 1103.53856354 1130.06550177 1112.67844725 1124.88671875 1121.76953125 C1121.02210552 1128.57012492 1117.26891685 1135.42454742 1113.5625 1142.3125 C1109.340824 1150.15800289 1105.03485646 1157.94622656 1100.625 1165.6875 C1095.98556482 1173.83452747 1091.48438864 1182.04543768 1087.0625 1190.3125 C1082.12967233 1199.5348023 1077.06916659 1208.67071381 1071.89331055 1217.75854492 C1067.39363563 1225.67800017 1063.04485552 1233.67368176 1058.72192383 1241.69067383 C1054.37067149 1249.75767615 1049.9424298 1257.77837651 1045.47460938 1265.78125 C1042.62312849 1270.89261823 1039.7806577 1276.00899892 1036.9375 1281.125 C1036.30360352 1282.26525635 1035.66970703 1283.4055127 1035.01660156 1284.58032227 C1031.6667411 1290.60871551 1028.32611467 1296.64206366 1025 1302.68359375 C1024.49653297 1303.59794945 1024.49653297 1303.59794945 1023.9828949 1304.53077698 C1022.62904806 1306.98970204 1021.27523133 1309.44864329 1019.92214966 1311.9079895 C1015.47048504 1319.99666397 1010.9518242 1328.0438372 1006.375 1336.0625 C1001.31065552 1344.95254606 996.54030474 1353.97267443 991.85546875 1363.06762695 C988.4470555 1369.67755787 984.95997561 1376.23426383 981.375 1382.75 C976.23738863 1392.09591442 971.23044276 1401.50727137 966.25 1410.9375 C954.3411993 1433.47954859 942.31807429 1455.95655844 930.0625 1478.3125 C930.81789063 1477.55582031 931.57328125 1476.79914063 932.3515625 1476.01953125 C933.84093063 1474.53230918 935.33281782 1473.0475409 936.8359375 1471.57421875 C939.78236377 1468.67809732 942.61041931 1465.73074217 945.3046875 1462.59765625 C949.66509154 1457.58417498 954.23352077 1452.77774624 958.80859375 1447.9609375 C959.44410156 1447.28804687 960.07960938 1446.61515625 960.734375 1445.921875 C961.3025293 1445.32342773 961.87068359 1444.72498047 962.45605469 1444.10839844 C964.13320795 1442.3004878 964.13320795 1442.3004878 965.64550781 1440.08691406 C966.11311523 1439.50135742 966.58072266 1438.91580078 967.0625 1438.3125 C967.7225 1438.3125 968.3825 1438.3125 969.0625 1438.3125 C969.45888672 1437.42304688 969.45888672 1437.42304688 969.86328125 1436.515625 C971.10620425 1434.23220946 972.36651646 1432.83823277 974.25 1431.0625 C976.76900185 1428.67918209 979.07599266 1426.17889571 981.34765625 1423.5625 C984.90444667 1419.46602931 988.58590665 1415.50424898 992.3125 1411.5625 C997.71486904 1405.82435663 1003.07509914 1400.05314591 1008.390625 1394.234375 C1012.76255574 1389.45337472 1017.16284068 1384.69861172 1021.55957031 1379.94042969 C1023.02818212 1378.34967213 1024.4948788 1376.75717301 1025.9609375 1375.1640625 C1047.54097715 1351.72279885 1047.54097715 1351.72279885 1057.17578125 1342.23046875 C1058.95552872 1340.42124306 1060.60794059 1338.55898108 1062.25 1336.625 C1065.65410043 1332.64690606 1069.34377172 1328.99250161 1073.0625 1325.3125 C1077.27261927 1321.14604285 1081.33491225 1316.95964582 1085.16015625 1312.43359375 C1088.38820159 1308.83435634 1091.8702371 1305.48581789 1095.30712891 1302.08740234 C1098.149224 1299.2649361 1100.91240122 1296.43666268 1103.5 1293.375 C1107.33610595 1288.8466644 1111.58831436 1284.73461915 1115.82592773 1280.58618164 C1118.80352361 1277.65212154 1121.65340423 1274.67413277 1124.375 1271.5 C1129.47714887 1265.58925164 1135.12084756 1260.21024718 1140.6796875 1254.734375 C1145.05535484 1250.39860736 1149.25296406 1246.01125327 1153.26171875 1241.3359375 C1157.60667549 1236.45375184 1162.37920377 1231.96130498 1167.03515625 1227.37890625 C1170.57222294 1223.8759044 1174.05840685 1220.39008153 1177.28125 1216.59375 C1183.39417187 1209.47265751 1190.28878037 1203.03451869 1196.95605469 1196.43945312 C1198.80616619 1194.60760246 1200.65312912 1192.77261693 1202.5 1190.9375 C1203.33156616 1190.11838135 1203.33156616 1190.11838135 1204.17993164 1189.28271484 C1207.06788182 1186.41251402 1209.8203107 1183.47789626 1212.48046875 1180.39453125 C1216.11556546 1176.19334997 1219.98678207 1172.27790078 1223.9375 1168.375 C1224.66565918 1167.65062744 1225.39381836 1166.92625488 1226.14404297 1166.17993164 C1229.22306951 1163.11707576 1232.30808323 1160.06027689 1235.39257812 1157.00292969 C1237.65965458 1154.75405883 1239.92362966 1152.50209762 1242.1875 1150.25 C1242.87312012 1149.57267822 1243.55874023 1148.89535645 1244.26513672 1148.19750977 C1244.92271973 1147.54322998 1245.58030273 1146.8889502 1246.2578125 1146.21484375 C1246.82516113 1145.65273193 1247.39250977 1145.09062012 1247.97705078 1144.51147461 C1249.70305834 1142.69150855 1251.32098629 1140.83868801 1252.94585705 1138.93040466 C1258.03726118 1133.10503783 1263.54261338 1127.69066056 1269.01423645 1122.22705078 C1270.2276281 1121.01178862 1271.44080403 1119.79631103 1272.65378398 1118.58063793 C1275.97252414 1115.25580389 1279.29435823 1111.93407639 1282.61673725 1108.61287904 C1286.20469592 1105.02512496 1289.78978796 1101.43450824 1293.37527466 1097.84428406 C1300.39195604 1090.81931086 1307.41140009 1083.79710453 1314.43194935 1076.77599698 C1320.13470946 1071.07276141 1325.83667848 1065.36873612 1331.53809166 1059.66415405 C1347.69821136 1043.49523497 1363.86041877 1027.32840692 1380.02531401 1011.16426218 C1380.89602045 1010.2935957 1381.76672688 1009.42292922 1382.66381836 1008.52587891 C1383.97146885 1007.21828973 1383.97146885 1007.21828973 1385.30553653 1005.88428462 C1399.45981701 991.73041132 1413.60909252 977.57154632 1427.75612751 963.41043139 C1442.27777017 948.87444969 1456.80311278 934.34217444 1471.33235949 919.81379318 C1479.49146894 911.65501636 1487.64901693 903.494692 1495.80259132 895.3303833 C1502.73788918 888.38601335 1509.6765954 881.44507202 1516.61983845 874.50864559 C1520.1648657 870.96689913 1523.70822567 867.42352435 1527.2473011 863.8758297 C1530.48171632 860.63361781 1533.72064082 857.39598548 1536.96334776 854.16206717 C1538.14055752 852.98640752 1539.31605116 851.80902667 1540.4897214 850.62983346 C1542.07530239 849.03728153 1543.6668092 847.45090812 1545.26006794 845.86604309 C1546.14557844 844.98031522 1547.03108895 844.09458735 1547.94343311 843.18201923 C1550.0625 841.3125 1550.0625 841.3125 1552.0625 841.3125 C1552.3925 840.3225 1552.7225 839.3325 1553.0625 838.3125 C1554.61572266 836.78491211 1554.61572266 836.78491211 1556.6015625 835.15234375 C1561.92598352 830.6369211 1566.73040637 825.66315904 1571.58984375 820.65820312 C1572.26917969 819.96791016 1572.94851562 819.27761719 1573.6484375 818.56640625 C1574.2573584 817.94064697 1574.8662793 817.3148877 1575.49365234 816.67016602 C1577.0625 815.3125 1577.0625 815.3125 1579.0625 815.3125 C1579.0625 814.6525 1579.0625 813.9925 1579.0625 813.3125 C1580.49609375 811.90234375 1580.49609375 811.90234375 1582.5 810.25 C1585.67007217 807.56075006 1588.64831525 804.77736623 1591.5625 801.8125 C1594.81022299 798.5262447 1598.14504505 795.44929897 1601.6484375 792.44140625 C1604.93105128 789.54654459 1608.11881255 786.55480894 1611.3125 783.5625 C1612.62885932 782.33067901 1613.94526546 781.09890806 1615.26171875 779.8671875 C1615.90544434 779.26487305 1616.54916992 778.66255859 1617.21240234 778.04199219 C1624.59064323 771.14472927 1632.06658332 764.41110429 1639.76611328 757.87597656 C1643.93379335 754.32278431 1647.99013047 750.66751648 1652 746.9375 C1664.50802955 735.3125 1664.50802955 735.3125 1667.0625 735.3125 C1667.0625 734.6525 1667.0625 733.9925 1667.0625 733.3125 C1668.52940559 731.9797812 1670.06572501 730.72336131 1671.625 729.5 C1676.36961379 725.70797276 1680.99021434 721.81034285 1685.5625 717.8125 C1690.7175807 713.31666984 1695.93764138 708.92624138 1701.25390625 704.62109375 C1704.56548593 701.89905815 1707.8156 699.11106861 1711.0625 696.3125 C1716.08113845 691.9883326 1721.16062629 687.7538776 1726.30078125 683.57421875 C1738.06538004 673.93956146 1749.50012293 663.90568902 1760.9609375 653.9140625 C1766.49765494 649.09345047 1772.03414936 644.29626336 1777.75 639.6875 C1782.19182777 636.09455487 1786.40035565 632.28926183 1790.58056641 628.40014648 C1794.69074025 624.59780352 1798.98557965 621.06953345 1803.34765625 617.55859375 C1807.13101677 614.42847534 1810.7128082 611.09488948 1814.32421875 607.76953125 C1816.94410046 605.41873867 1819.62802219 603.19999541 1822.375 601 C1828.12228447 596.36429634 1833.47218434 591.35482099 1838.85546875 586.30859375 C1842.51238183 582.88162213 1846.25457424 579.57054478 1850.0625 576.3125 C1851.09644678 575.42458701 1852.13029133 574.53655495 1853.1640625 573.6484375 C1855.55259079 571.59780022 1857.94354395 569.55003232 1860.3359375 567.50390625 C1862.80424374 565.39219066 1865.26753309 563.2748536 1867.7265625 561.15234375 C1873.57179416 556.11228622 1879.45092827 551.15311897 1885.5078125 546.3671875 C1888.54974772 543.92061575 1891.52668341 541.40416252 1894.5 538.875 C1900.29493395 533.94672479 1906.16127253 529.11320487 1912.0625 524.3125 C1913.79200867 522.89625089 1915.52116817 521.47957527 1917.25 520.0625 C1918.1575 519.32128906 1919.065 518.58007812 1920 517.81640625 C1922.25338657 515.97403279 1924.50275272 514.12716973 1926.75 512.27734375 C1934.14739079 506.20729074 1941.63996539 500.32349871 1949.33154297 494.63061523 C1954.478675 490.80236428 1959.37649119 486.75396029 1964.2734375 482.609375 C1967.82020464 479.68850795 1971.5128477 477.0178091 1975.25 474.34765625 C1978.21273422 472.20378885 1981.1083779 469.98879415 1984 467.75 C2010.72831716 447.06916259 2038.09340034 427.27639712 2066.0625 408.3125 C2066.68769531 407.88791504 2067.31289062 407.46333008 2067.95703125 407.02587891 C2084.69333278 395.6843442 2101.75721532 384.76443353 2119.0625 374.3125 C2120.24350403 373.59377373 2121.4244928 372.8750224 2122.60546875 372.15625 C2131.64710078 366.6721365 2140.80595233 361.42443896 2150.0625 356.3125 C2150.94583008 355.82233398 2151.82916016 355.33216797 2152.73925781 354.82714844 C2234.85134371 309.35873649 2324.55850391 283.73578458 2488.84521484 303.39697266 C2496.98270065 305.84663612 2505.03587383 308.52295179 2513.0625 311.3125 C2513.99078613 311.63250977 2514.91907227 311.95251953 2515.87548828 312.28222656 C2525.92691664 315.77399157 2535.61163766 319.74801981 2545.17480469 324.40771484 C2547.1382726 325.34881832 2549.11634497 326.25028486 2551.1015625 327.14453125 C2562.18504002 332.16681296 2572.66055139 338.00688467 2583.0625 344.3125 C2583.85446777 344.79235352 2584.64643555 345.27220703 2585.46240234 345.76660156 C2597.41305076 353.05744808 2608.84532714 360.94175952 2620.0625 369.3125 C2620.66288086 369.75835449 2621.26326172 370.20420898 2621.88183594 370.66357422 C2630.60811084 377.16702437 2638.86634342 384.15987882 2647.0625 391.3125 C2648.20525391 392.3025 2648.20525391 392.3025 2649.37109375 393.3125 C2651.27719455 394.96931196 2653.17058488 396.63951233 2655.0625 398.3125 C2655.75947998 398.92536865 2656.45645996 399.5382373 2657.17456055 400.16967773 C2663.66156052 405.93296352 2669.87052258 411.93429269 2676.00366211 418.06835938 C2677.62140192 419.6839068 2679.24700636 421.29125034 2680.87304688 422.8984375 C2687.39056993 429.38135544 2693.3357115 436.10914111 2699.0625 443.3125 C2699.99717346 444.41441814 2700.93852664 445.51075847 2701.890625 446.59765625 C2746.17255734 497.3790335 2774.49853037 562.30581181 2781.0625 629.3125 C2781.1567627 630.25472412 2781.25102539 631.19694824 2781.34814453 632.16772461 C2782.23500858 642.14454855 2782.30585564 652.11611752 2782.3125 662.125 C2782.31317474 663.04535034 2782.31384949 663.96570068 2782.31454468 664.91394043 C2782.21204209 753.66393379 2751.14570634 838.27449254 2707.0625 914.3125 C2706.38161388 915.49003733 2705.70078914 916.66761015 2705.02001953 917.84521484 C2696.77876987 932.08734457 2688.41260879 946.22531055 2679.50195312 960.06201172 C2678.06192615 962.31339718 2676.64546552 964.57803973 2675.234375 966.84765625 C2666.9173883 980.16422512 2658.15800738 993.17571904 2649.375 1006.1875 C2648.44060593 1007.57183228 2648.44060593 1007.57183228 2647.48733521 1008.98413086 C2628.10116648 1037.68681579 2628.10116648 1037.68681579 2618.1875 1051.6875 C2617.45587646 1052.7225769 2617.45587646 1052.7225769 2616.70947266 1053.77856445 C2611.9002965 1060.56776502 2607.02460749 1067.30855688 2602.14453125 1074.046875 C2599.85150073 1077.21522108 2597.57467365 1080.39441451 2595.30957031 1083.58276367 C2586.28220823 1096.28842229 2576.97961147 1108.79484839 2567.60644531 1121.24682617 C2563.67934548 1126.47059763 2559.80524946 1131.73219089 2555.9375 1137 C2550.83782751 1143.93909113 2545.65917705 1150.80300369 2540.38134766 1157.60791016 C2537.80493408 1160.93788417 2535.24619963 1164.28140705 2532.6875 1167.625 C2532.13626465 1168.34518311 2531.5850293 1169.06536621 2531.01708984 1169.80737305 C2527.35574703 1174.59903097 2523.73173174 1179.41715995 2520.125 1184.25 C2515.18982685 1190.86064922 2510.14231438 1197.37853955 2505.06494141 1203.88037109 C2501.10764357 1208.95295731 2497.21936463 1214.06776438 2493.375 1219.2265625 C2490.60745497 1222.91973914 2487.80607796 1226.58606392 2485 1230.25 C2484.45520996 1230.9618042 2483.91041992 1231.6736084 2483.34912109 1232.40698242 C2480.94720968 1235.54505244 2478.54490634 1238.68282115 2476.14160156 1241.81982422 C2469.03884202 1251.09550205 2461.96899435 1260.38944129 2455.0625 1269.8125 C2446.87161344 1280.98708459 2438.44338517 1291.97765956 2430.02148438 1302.97851562 C2421.15790365 1314.5615075 2412.39553341 1326.20842788 2403.77587891 1337.97412109 C2395.47143901 1349.30782376 2387.1129096 1360.59834219 2378.67041016 1371.82958984 C2372.66122577 1379.83094103 2366.7252234 1387.88502322 2360.80078125 1395.94921875 C2359.04738804 1398.33304547 2357.28996879 1400.71385017 2355.53125 1403.09375 C2349.29020051 1411.54188426 2343.09297792 1420.01860054 2336.95678711 1428.54321289 C2333.0285103 1433.99357061 2329.05528712 1439.40926235 2325.0625 1444.8125 C2318.32696941 1453.92998366 2311.68386363 1463.11190769 2305.0625 1472.3125 C2302.91786763 1475.2925339 2300.77217454 1478.2717972 2298.625 1481.25 C2298.09124756 1481.99072754 2297.55749512 1482.73145508 2297.00756836 1483.49462891 C2293.6489502 1488.14564293 2290.25018416 1492.76472268 2286.8293457 1497.37011719 C2280.97401436 1505.25705513 2275.32638806 1513.2473429 2269.82519531 1521.38500977 C2265.8180017 1527.28380929 2261.61253585 1533.00052997 2257.30029297 1538.67871094 C2253.51941812 1543.6672085 2249.93008798 1548.75159666 2246.39453125 1553.91796875 C2243.71909524 1557.8273293 2240.98529036 1561.69488181 2238.25 1565.5625 C2237.48792236 1566.64072021 2237.48792236 1566.64072021 2236.71044922 1567.74072266 C2235.16155558 1569.93161441 2233.61206103 1572.12208024 2232.0625 1574.3125 C2219.3346803 1592.31105545 2206.70049826 1610.37397787 2194.12109375 1628.4765625 C2191.47251741 1632.28741809 2188.81882147 1636.09461424 2186.16015625 1639.8984375 C2176.5623888 1653.63995712 2167.11690888 1667.48097046 2157.73046875 1681.3671875 C2155.41248201 1684.79601952 2153.09103731 1688.2224978 2150.76893616 1691.64854431 C2128.60121182 1724.35888065 2106.58710596 1757.17461827 2085.0625 1790.3125 C2083.88690156 1792.11860859 2082.71112394 1793.92460056 2081.53515625 1795.73046875 C2078.8613347 1799.83812326 2076.19131681 1803.94822577 2073.52392578 1808.06005859 C2072.11975963 1810.22424785 2070.71422045 1812.38754045 2069.30859375 1814.55078125 C2057.3301798 1833.00319097 2045.59563072 1851.60706712 2033.95800781 1870.27587891 C2032.06720247 1873.3049666 2030.17118197 1876.3307244 2028.2734375 1879.35546875 C2020.39520682 1891.91786012 2012.62149786 1904.53854156 2004.93847656 1917.22119141 C2002.93065905 1920.52975274 2000.91513639 1923.83356856 1998.8984375 1927.13671875 C1989.77324485 1942.09258627 1980.82530548 1957.14067596 1972.0625 1972.3125 C1971.44632813 1973.37742676 1970.83015625 1974.44235352 1970.1953125 1975.53955078 C1966.39080435 1982.11494433 1962.59489315 1988.69522063 1958.80712891 1995.28027344 C1957.70364317 1997.19817057 1956.59926554 1999.11555506 1955.49365234 2001.03222656 C1934.24922355 2037.86523622 1914.377189 2075.43800706 1895.0625 2113.3125 C1894.50191895 2114.41029785 1893.94133789 2115.5080957 1893.36376953 2116.63916016 C1885.19382127 2132.67833789 1877.51081737 2148.92700794 1870.0625 2165.3125 C1869.75185608 2165.99459534 1869.44121216 2166.67669067 1869.12115479 2167.37945557 C1842.81669637 2225.16686017 1818.4100027 2285.3852452 1808.0625 2348.3125 C1807.89878906 2349.28251953 1807.73507813 2350.25253906 1807.56640625 2351.25195312 C1801.47635037 2388.47175748 1801.43940533 2435.22432352 1824 2467.3125 C1825.32856355 2468.99964672 1826.68257153 2470.66709958 1828.0625 2472.3125 C1828.74957031 2473.16070313 1829.43664063 2474.00890625 1830.14453125 2474.8828125 C1847.32554818 2495.12855137 1874.10676768 2504.72730024 1900.03393555 2507.11401367 C1952.81138419 2510.57294682 2002.0144291 2497.60129509 2049.0625 2474.3125 C2050.03058594 2473.83731934 2050.99867188 2473.36213867 2051.99609375 2472.87255859 C2082.94240775 2457.57260858 2111.58809729 2438.19568661 2138.81054688 2417.05761719 C2140.76730001 2415.54126079 2142.73160191 2414.03612505 2144.703125 2412.5390625 C2152.68289736 2406.46578747 2160.46632184 2400.16640118 2168.22460938 2393.81396484 C2169.86905563 2392.47053439 2171.52003952 2391.13511569 2173.171875 2389.80078125 C2178.43720119 2385.53943675 2183.51643395 2381.13593706 2188.51953125 2376.5703125 C2191.20027224 2374.19017687 2193.95754134 2371.93518159 2196.75 2369.6875 C2200.53297411 2366.62711645 2204.02491355 2363.46954685 2207.40625 2359.9765625 C2209.75185155 2357.6198968 2212.26565883 2355.48070997 2214.78125 2353.30859375 C2219.07002813 2349.55591289 2223.24330262 2345.67487419 2227.43310547 2341.8125 C2229.09976259 2340.27819653 2230.77027523 2338.74817833 2232.44140625 2337.21875 C2237.78445534 2332.3197985 2243.04901184 2327.3875007 2248.12904358 2322.21351624 C2249.86224798 2320.50939212 2251.63681052 2318.93873735 2253.49389648 2317.37280273 C2259.55963876 2312.09617509 2265.17152796 2306.34737634 2270.84765625 2300.66015625 C2272.07484122 2299.43364646 2273.30217447 2298.20728502 2274.52964783 2296.98106384 C2277.09048381 2294.42169472 2279.64952171 2291.86054507 2282.20727539 2289.2980957 C2285.46727954 2286.03239492 2288.73175365 2282.77120525 2291.99759769 2279.51134586 C2294.52946285 2276.98311373 2297.05891744 2274.45248061 2299.58767509 2271.92114067 C2300.78968599 2270.71846808 2301.99242519 2269.51652291 2303.19594002 2268.3153553 C2311.65156883 2259.88093934 2311.65156883 2259.88093934 2319.61289978 2250.98228455 C2322.4159383 2247.75348371 2325.5113085 2244.80432372 2328.5625 2241.8125 C2332.98693792 2237.43538227 2337.29528759 2233.05416083 2341.3046875 2228.2890625 C2344.192067 2225.04236466 2347.31080638 2222.02349951 2350.42089844 2218.99121094 C2353.08292308 2216.41283582 2353.08292308 2216.41283582 2355.0625 2213.3125 C2355.7225 2213.3125 2356.3825 2213.3125 2357.0625 2213.3125 C2357.29582031 2212.75046875 2357.52914062 2212.1884375 2357.76953125 2211.609375 C2359.38187076 2208.74515858 2361.3818562 2206.83997979 2363.75 2204.5625 C2367.32496971 2201.05872456 2370.70197317 2197.50778256 2373.953125 2193.70703125 C2376.91795062 2190.34140513 2379.99313001 2187.08266244 2383.0625 2183.8125 C2387.21727443 2179.38189216 2391.33048021 2174.93654325 2395.29296875 2170.33203125 C2397.67134497 2167.6176372 2400.11762354 2164.96680875 2402.5625 2162.3125 C2406.20742244 2158.35324367 2409.80510497 2154.36121807 2413.328125 2150.29296875 C2415.33514538 2148.00116845 2417.38652851 2145.75253248 2419.4375 2143.5 C2422.56672827 2140.03719918 2425.56750349 2136.50570997 2428.5 2132.875 C2432.36075137 2128.101097 2436.43687075 2123.57861572 2440.59375 2119.0625 C2443.79010399 2115.50200441 2446.77423149 2111.78984173 2449.77734375 2108.06640625 C2452.14616025 2105.21167867 2454.61176417 2102.4781079 2457.125 2099.75 C2460.92098221 2095.62113935 2464.47264271 2091.38056946 2467.9375 2086.97265625 C2470.40074114 2083.88907681 2472.94175028 2080.87978858 2475.5 2077.875 C2479.64647208 2073.0020609 2483.72046397 2068.07735214 2487.7578125 2063.11328125 C2489.82916533 2060.59606095 2491.92968183 2058.10898173 2494.04614258 2055.62988281 C2498.74290688 2050.12793537 2503.2856759 2044.53552486 2507.72607422 2038.82495117 C2511.42364623 2034.08552545 2515.22752751 2029.44118392 2519.0625 2024.8125 C2524.73317481 2017.96203584 2530.27731953 2011.02657625 2535.74023438 2004.00976562 C2537.9867045 2001.12618728 2540.24285015 1998.25022206 2542.5 1995.375 C2542.95286377 1994.79766113 2543.40572754 1994.22032227 2543.87231445 1993.62548828 C2546.70700054 1990.01788814 2549.56752031 1986.43227599 2552.44335938 1982.85742188 C2557.21486418 1976.92578649 2561.89789728 1970.93915005 2566.5 1964.875 C2570.75538719 1959.2690893 2575.09924912 1953.75431024 2579.5625 1948.3125 C2585.64307238 1940.89059813 2591.48846809 1933.30766509 2597.28222656 1925.66064453 C2600.59694053 1921.28860409 2603.9246783 1916.92647396 2607.25 1912.5625 C2607.93392822 1911.66418457 2608.61785645 1910.76586914 2609.32250977 1909.84033203 C2612.97146699 1905.04895046 2616.63216015 1900.26731021 2620.3125 1895.5 C2623.80827694 1890.96478108 2627.25826751 1886.39802258 2630.6875 1881.8125 C2635.36426516 1875.55907506 2640.07767948 1869.3345819 2644.8125 1863.125 C2645.82280273 1861.79976318 2645.82280273 1861.79976318 2646.85351562 1860.44775391 C2650.28147361 1855.95322984 2653.71315791 1851.46158635 2657.1484375 1846.97265625 C2664.20054012 1837.74949889 2671.18753746 1828.48597443 2678.05517578 1819.12451172 C2681.69421254 1814.16407766 2685.36259652 1809.2276823 2689.0625 1804.3125 C2695.19310637 1796.1628561 2701.23960603 1787.95226921 2707.28027344 1779.73583984 C2709.62382374 1776.5492535 2711.97032733 1773.36484918 2714.31713867 1770.18066406 C2715.48156392 1768.60073331 2716.64578891 1767.02065495 2717.80981445 1765.44042969 C2720.73644442 1761.46743656 2723.66510113 1757.49596582 2726.59765625 1753.52734375 C2734.49110834 1742.84013563 2742.30171567 1732.09635308 2750.0625 1721.3125 C2756.70103738 1712.08804423 2763.36463096 1702.885684 2770.125 1693.75 C2775.03590282 1687.10981091 2779.85508568 1680.41394185 2784.59619141 1673.65161133 C2788.18078195 1668.54306518 2791.8296002 1663.48464227 2795.5 1658.4375 C2800.52438955 1651.51875448 2805.38127617 1644.49973638 2810.18286133 1637.42504883 C2813.92805177 1631.92424751 2817.7725484 1626.50610184 2821.6875 1621.125 C2826.16313371 1614.97258332 2830.54348615 1608.76830546 2834.83300781 1602.48486328 C2838.49270222 1597.12687071 2842.20807735 1591.80965186 2845.9375 1586.5 C2850.5512378 1579.9297958 2855.1110248 1573.32658311 2859.625 1566.6875 C2865.41306609 1558.18852315 2871.39600658 1549.8436154 2877.45068359 1541.53320312 C2879.04546514 1539.33597003 2880.62818875 1537.13058273 2882.20703125 1534.921875 C2890.03715699 1523.98173178 2898.14093628 1513.26851454 2906.32373047 1502.59033203 C2908.52926912 1499.70102066 2910.70463682 1496.79081887 2912.875 1493.875 C2927.98349804 1473.69232714 2944.11699115 1454.20035054 2961.05859375 1435.53125 C2962.87561982 1433.51941607 2964.66194392 1431.48589566 2966.4375 1429.4375 C2974.10418219 1420.6755775 2982.0319723 1412.24582261 2990.25 1404 C2991.37208862 1402.87102295 2991.37208862 1402.87102295 2992.5168457 1401.71923828 C2997.20427111 1397.04473729 3002.04364401 1392.62641351 3007.0625 1388.3125 C3008.23082852 1387.27921977 3009.39753994 1386.24410773 3010.5625 1385.20703125 C3046.16152178 1353.7379201 3088.07935345 1333.1228114 3135.0625 1325.3125 C3135.96403809 1325.15168945 3136.86557617 1324.99087891 3137.79443359 1324.82519531 C3195.29318118 1314.8029518 3257.16985408 1326.08042205 3305.15234375 1359.78027344 C3312.87089469 1365.4682398 3320.02198955 1371.81356728 3327.0625 1378.3125 C3328.87331182 1379.93938101 3330.685796 1381.56440262 3332.5 1383.1875 C3338.53237329 1388.59049245 3338.53237329 1388.59049245 3340.0625 1390.3125 C3340.0625 1390.9725 3340.0625 1391.6325 3340.0625 1392.3125 C3340.7225 1392.3125 3341.3825 1392.3125 3342.0625 1392.3125 C3344.82257696 1395.28077242 3347.27696337 1398.50221498 3349.78173828 1401.6875 C3351.01979439 1403.25831614 3352.27331575 1404.81690499 3353.52734375 1406.375 C3394.78646333 1458.51922696 3403.352285 1523.5003845 3395.85354614 1587.99563599 C3390.9873406 1628.19295726 3381.93321468 1667.63129445 3370.0625 1706.3125 C3369.72892487 1707.40283539 3369.72892487 1707.40283539 3369.38861084 1708.51519775 C3344.13524401 1790.86116238 3307.97322429 1870.19884289 3264.45166016 1952.71826172 C3262.71302441 1955.96514106 3260.98765462 1959.2190166 3259.26171875 1962.47265625 C3248.69129198 1982.38546042 3237.80672822 2002.08694388 3226.59033203 2021.64355469 C3225.08530921 2024.27265496 3223.58651384 2026.90519967 3222.08984375 2029.5390625 C3215.50704649 2041.11626791 3208.79568449 2052.61079676 3201.9921875 2064.05957031 C3200.20602652 2067.07055323 3198.42522132 2070.08461556 3196.64628601 2073.09986877 C3188.1492118 2087.50013511 3179.60331009 2101.8426418 3170.58300781 2115.92333984 C3167.58385945 2120.63587451 3164.6415038 2125.38409436 3161.6875 2130.125 C3132.66492509 2176.60302175 3102.32821862 2222.31207642 3071.0625 2267.3125 C3070.53672363 2268.06966309 3070.01094727 2268.82682617 3069.46923828 2269.60693359 C3062.67335621 2279.38193846 3055.80734716 2289.10080786 3048.81469727 2298.73608398 C3045.20747678 2303.71059716 3041.65352453 2308.71944076 3038.125 2313.75 C3033.29679767 2320.62437578 3028.34599931 2327.40125306 3023.34619141 2334.15161133 C3019.35163112 2339.54816672 3015.41319055 2344.98174583 3011.5 2350.4375 C3006.78631954 2356.99789445 3001.94511873 2363.44495123 2997.01196289 2369.84155273 C2992.90923267 2375.17195887 2988.90999398 2380.57202671 2984.9375 2386 C2979.55082188 2393.35179753 2974.00863218 2400.55362582 2968.34179688 2407.69042969 C2966.22244636 2410.37763671 2964.14298965 2413.09516756 2962.0625 2415.8125 C2958.22751577 2420.81534262 2954.34874369 2425.78174121 2950.44702148 2430.73266602 C2947.25160328 2434.79041931 2944.07769943 2438.86430695 2940.91235352 2442.94555664 C2935.46062645 2449.97449419 2929.96961296 2456.96723724 2924.39746094 2463.90112305 C2921.02625633 2468.09821641 2917.69191919 2472.3224103 2914.375 2476.5625 C2910.36810433 2481.68083899 2906.29078933 2486.73449497 2902.16015625 2491.75390625 C2900.19185014 2494.15472655 2898.24743255 2496.57224538 2896.3125 2499 C2888.29545329 2509.04123146 2880.21036324 2519.02029459 2871.87573242 2528.80004883 C2868.55016388 2532.71043982 2865.34036856 2536.70013824 2862.15234375 2540.72265625 C2859.23029685 2544.34380969 2856.21428514 2547.88204569 2853.19921875 2551.42578125 C2850.28245487 2554.85821609 2847.40556574 2558.31842815 2844.5625 2561.8125 C2840.81397354 2566.4178325 2836.99165754 2570.95454444 2833.14624023 2575.47875977 C2830.2670468 2578.87204109 2827.43045763 2582.29517786 2824.625 2585.75 C2820.20987176 2591.17250153 2815.66237523 2596.47377455 2811.1015625 2601.7734375 C2808.23652911 2605.10415251 2805.3959206 2608.45488379 2802.5625 2611.8125 C2797.77185931 2617.48560445 2792.94712305 2623.12875658 2788.109375 2628.76171875 C2786.0528355 2631.15638299 2784.00112686 2633.55506169 2781.953125 2635.95703125 C2776.7314843 2642.07642483 2771.46471173 2648.13983599 2766.0625 2654.1015625 C2762.09266703 2658.49008879 2758.21276063 2662.95392711 2754.3828125 2667.46484375 C2748.78608119 2674.04803596 2743.10161018 2680.5153394 2737.2121582 2686.83862305 C2734.6163359 2689.62606314 2732.05274276 2692.43033042 2729.5625 2695.3125 C2725.03531024 2700.54294254 2720.2965913 2705.58059972 2715.59570312 2710.65429688 C2713.24268624 2713.19915208 2710.90230997 2715.7555068 2708.5625 2718.3125 C2704.23774328 2723.0363691 2699.89834002 2727.74647965 2695.54956055 2732.44824219 C2693.08170049 2735.11805805 2690.62071329 2737.79353264 2688.17578125 2740.484375 C2683.35376329 2745.78692624 2678.47911649 2750.99561947 2673.328125 2755.984375 C2671.42020079 2757.9449316 2669.64117757 2759.94266481 2667.859375 2762.015625 C2663.10216966 2767.49570157 2657.90581437 2772.51689224 2652.734375 2777.6015625 C2651.97640625 2778.35179688 2651.2184375 2779.10203125 2650.4375 2779.875 C2649.76460937 2780.53628906 2649.09171875 2781.19757812 2648.3984375 2781.87890625 C2646.47278245 2783.88506527 2644.65582467 2785.92468461 2642.84263611 2788.03038025 C2639.44625769 2791.92127786 2635.90162063 2795.61534785 2632.24438477 2799.26000977 C2631.60272369 2799.90342316 2630.96106262 2800.54683655 2630.29995728 2801.20974731 C2628.20376065 2803.31030158 2626.10397898 2805.40722776 2624.00390625 2807.50390625 C2622.53077355 2808.97771374 2621.05778923 2810.45166954 2619.58494568 2811.92576599 C2616.50771509 2815.00446531 2613.42869756 2818.08136311 2610.34838867 2821.15698242 C2606.41681328 2825.08286106 2602.48974506 2829.0132127 2598.56401157 2832.94493198 C2595.52622259 2835.98634887 2592.4860381 2839.02536226 2589.44514275 2842.06367302 C2587.99685382 2843.51129885 2586.54929632 2844.95965685 2585.10251045 2846.40878487 C2583.07409901 2848.43975961 2581.04246854 2850.46746134 2579.01000977 2852.49438477 C2578.42326981 2853.08314896 2577.83652985 2853.67191315 2577.23200989 2854.27851868 C2573.59498788 2857.89737698 2569.8334071 2861.31888895 2565.93751431 2864.65779018 C2562.65751139 2867.55240971 2559.62385426 2870.6903665 2556.5625 2873.8125 C2552.09157716 2878.33197185 2547.60950481 2882.73830628 2542.75 2886.84375 C2540.93309567 2888.42512969 2539.2503872 2890.09447196 2537.5625 2891.8125 C2535.30452057 2894.10576036 2533.00253496 2896.27678028 2530.5625 2898.375 C2526.50315081 2901.87362197 2522.59602851 2905.52267917 2518.6875 2909.1875 C2512.87485317 2914.63448605 2507.00604608 2920.00825971 2501.0625 2925.3125 C2499.39518069 2926.81177453 2497.72852434 2928.31178661 2496.0625 2929.8125 C2495.24007812 2930.55242188 2494.41765625 2931.29234375 2493.5703125 2932.0546875 C2491.87657106 2933.57958244 2490.18388831 2935.10565402 2488.4921875 2936.6328125 C2484.06355714 2940.62806007 2479.61368221 2944.59363611 2475.11328125 2948.5078125 C2472.80161203 2950.54208141 2470.5271857 2952.6147231 2468.25 2954.6875 C2463.9788648 2958.54320563 2459.57219554 2962.18801065 2455.1015625 2965.80859375 C2451.60143276 2968.69237673 2448.17129321 2971.64851435 2444.75 2974.625 C2443.79975952 2975.45161133 2443.79975952 2975.45161133 2442.83032227 2976.29492188 C2441.54418345 2977.41412485 2440.25813212 2978.53342837 2438.97216797 2979.65283203 C2431.10070599 2986.4938188 2423.18607593 2993.27318284 2415.08984375 2999.84765625 C2412.0484827 3002.32391279 2409.02360298 3004.81917072 2406.00048828 3007.31762695 C2393.40787696 3017.71966909 2380.64126301 3027.89122184 2367.78320312 3037.96240234 C2366.07690636 3039.30119648 2364.37388687 3040.64404523 2362.671875 3041.98828125 C2349.61732606 3052.29174987 2336.38466114 3062.35809189 2323.0625 3072.3125 C2322.16015625 3072.99183594 2321.2578125 3073.67117187 2320.328125 3074.37109375 C2304.03715182 3086.63432632 2287.59819659 3098.69080565 2270.8671875 3110.34765625 C2268.63719015 3111.90989673 2266.41445864 3113.48104475 2264.1953125 3115.05859375 C2255.65658853 3121.12372051 2247.04948597 3127.05300908 2238.30957031 3132.82373047 C2235.69879082 3134.55347116 2233.09523613 3136.29380345 2230.4921875 3138.03515625 C2204.0413507 3155.72613353 2177.29949252 3172.85672531 2150.0625 3189.3125 C2149.05912598 3189.9199707 2148.05575195 3190.52744141 2147.02197266 3191.15332031 C2124.28362148 3204.91152611 2101.33741532 3218.21776086 2077.91357422 3230.77587891 C2075.16497294 3232.25727096 2072.42634103 3233.75526782 2069.69140625 3235.26171875 C2049.95476477 3246.13238294 2030.02753331 3256.73720205 2009.56640625 3266.1875 C2005.87086069 3267.90244601 2002.24253857 3269.73493377 1998.609375 3271.578125 C1990.45013937 3275.69369482 1982.11224412 3279.3819867 1973.75 3283.0625 C1972.14664032 3283.77038946 1970.54337004 3284.47848146 1968.94018555 3285.18676758 C1966.53830382 3286.24762634 1964.13622277 3287.30801868 1961.7334137 3288.36677551 C1957.25455108 3290.34070246 1952.78345608 3292.33053733 1948.3203125 3294.33984375 C1896.74893087 3317.48651398 1842.72012669 3335.98309471 1788.0625 3350.3125 C1786.8672168 3350.63138184 1785.67193359 3350.95026367 1784.44042969 3351.27880859 C1699.94475402 3373.73587159 1612.6416573 3383.10367728 1274.11572266 3302.19873047 C1270.3599316 3300.01210262 1266.6959761 3297.69489979 1263.0625 3295.3125 C1262.28841797 3294.80605957 1261.51433594 3294.29961914 1260.71679688 3293.77783203 C1244.65506125 3283.23543814 1229.03997555 3272.34724045 1214.0625 3260.3125 C1213.12792969 3259.56226562 1212.19335938 3258.81203125 1211.23046875 3258.0390625 C1208.49065211 3255.81672221 1205.77171213 3253.57205036 1203.0625 3251.3125 C1202.54252441 3250.8788916 1202.02254883 3250.4452832 1201.48681641 3249.99853516 C1186.4181924 3237.3842872 1172.40505445 3223.74551275 1158.5 3209.875 C1157.88727234 3209.26495117 1157.27454468 3208.65490234 1156.64324951 3208.02636719 C1150.22904584 3201.63344175 1143.89908852 3195.24535552 1138.0625 3188.3125 C1137.07840283 3187.18221623 1136.09275155 3186.05328349 1135.10546875 3184.92578125 C1128.92882683 3177.80560403 1123.00962876 3170.55357131 1117.34863281 3163.01513672 C1116.02399399 3161.26152413 1114.68146818 3159.52277779 1113.3359375 3157.78515625 C1057.4996969 3085.19708949 1022.94679117 2998.09208083 999.0625 2842.3125 C998.98418945 2841.30902527 998.98418945 2841.30902527 998.90429688 2840.28527832 C991.12357735 2739.46612478 999.8478796 2635.63866585 1041.50115967 2421.52722168 C1042.06024934 2419.32137978 1042.61478919 2417.11443494 1043.16845703 2414.90722656 C1055.05080496 2367.66306343 1069.71172202 2321.21714109 1085.15545654 2275.0322876 C1085.94905981 2272.65265263 1086.73691819 2270.27129054 1087.52001953 2267.88818359 C1099.19006417 2232.40699919 1113.17979859 2197.54607133 1128.17242432 2163.34338379 C1129.10175528 2161.22293131 1130.02824404 2159.10125031 1130.95458984 2156.97949219 C1149.9768921 2113.46643714 1170.31333542 2070.44285535 1192.43603516 2028.41699219 C1194.09147769 2025.25718923 1195.72626237 2022.08746478 1197.35546875 2018.9140625 C1203.1678535 2007.60941542 1209.16255209 1996.44682895 1215.47119141 1985.41088867 C1218.58925889 1979.95025366 1221.60531376 1974.45688504 1224.5 1968.875 C1228.55590009 1961.08876016 1232.96442568 1953.52533726 1237.41333008 1945.95825195 C1241.72256606 1938.62617906 1245.96024309 1931.25722196 1250.1630249 1923.86392212 C1256.43424168 1912.8367057 1262.81486462 1901.88604165 1269.40332031 1891.04492188 C1271.2922744 1887.93409578 1273.1734727 1884.81863709 1275.0546875 1881.703125 C1288.15433562 1860.02756487 1301.57126838 1838.55853081 1315.20751953 1817.21630859 C1317.2117154 1814.07891643 1319.21323537 1810.93982474 1321.21484375 1807.80078125 C1322.62223915 1805.59625413 1324.02978824 1803.39182512 1325.4375 1801.1875 C1326.07937256 1800.18082275 1326.72124512 1799.17414551 1327.38256836 1798.13696289 C1331.21622271 1792.14121658 1335.12216072 1786.19969685 1339.08056641 1780.28564453 C1342.27980064 1775.48639908 1345.41983288 1770.64889929 1348.5625 1765.8125 C1356.93851564 1752.92225278 1365.49805645 1740.16051094 1374.125 1727.4375 C1374.81255875 1726.42320923 1374.81255875 1726.42320923 1375.51400757 1725.38842773 C1378.2791243 1721.30949565 1381.04541429 1717.23136157 1383.81274414 1713.15393066 C1384.95411119 1711.47220357 1386.09523255 1709.79030974 1387.23632812 1708.10839844 C1393.55018572 1698.80690117 1399.89755642 1689.53187759 1406.33789062 1680.31738281 C1415.41267718 1667.32988596 1423.9695376 1654.28479214 1431.84814453 1640.53881836 C1436.61924285 1632.25985035 1441.77636492 1624.26968805 1447.0625 1616.3125 C1447.73667969 1615.29704102 1448.41085938 1614.28158203 1449.10546875 1613.23535156 C1453.74544985 1606.25279594 1458.39890124 1599.27930599 1463.0625 1592.3125 C1459.3903541 1594.07012925 1456.40566839 1596.24207576 1453.1875 1598.75 C1452.34082764 1599.40826782 1452.34082764 1599.40826782 1451.47705078 1600.07983398 C1449.66941052 1601.48718617 1447.86587861 1602.8996927 1446.0625 1604.3125 C1444.86989334 1605.24231792 1443.67718568 1606.17200631 1442.484375 1607.1015625 C1435.2623301 1612.74133295 1428.12957211 1618.47921712 1421.0625 1624.3125 C1418.97439393 1626.03263945 1416.88588037 1627.75228345 1414.79736328 1629.47192383 C1413.30713489 1630.69923777 1411.81722607 1631.92693984 1410.32763672 1633.1550293 C1406.35462408 1636.42986488 1402.37119812 1639.69095795 1398.375 1642.9375 C1391.8381989 1648.27950815 1385.45630728 1653.80107259 1379.0625 1659.3125 C1376.66799561 1661.37654988 1374.27237147 1663.43928069 1371.875 1665.5 C1371.29000732 1666.00321777 1370.70501465 1666.50643555 1370.10229492 1667.02490234 C1366.63659561 1669.99577979 1363.12331456 1672.89300677 1359.5625 1675.75 C1353.89367317 1680.34702501 1348.60444664 1685.31399341 1343.28515625 1690.3046875 C1340.24455669 1693.1547557 1337.13901576 1695.91738811 1333.984375 1698.640625 C1331.65144926 1700.67008073 1329.35738755 1702.740147 1327.0625 1704.8125 C1325.39583333 1706.3125 1323.72916667 1707.8125 1322.0625 1709.3125 C1321.31226562 1709.99183594 1320.56203125 1710.67117188 1319.7890625 1711.37109375 C1319.09554687 1711.99113281 1318.40203125 1712.61117188 1317.6875 1713.25 C1317.08164063 1713.79527344 1316.47578125 1714.34054687 1315.8515625 1714.90234375 C1314.0100345 1716.35385381 1312.19111194 1717.34196548 1310.0625 1718.3125 C1310.0625 1718.9725 1310.0625 1719.6325 1310.0625 1720.3125 C1308.83984375 1721.546875 1308.83984375 1721.546875 1307 1723.0625 C1302.84444296 1726.59398929 1298.85058418 1730.26928509 1294.875 1734 C1289.98118879 1738.58802446 1285.0680582 1743.1525976 1280.125 1747.6875 C1275.979812 1751.4946097 1271.94675054 1755.38645927 1268.00463867 1759.40356445 C1266.22109543 1761.15661595 1264.38891065 1762.77619934 1262.48046875 1764.390625 C1256.30075954 1769.75854741 1250.673385 1775.69363274 1244.95703125 1781.54492188 C1244.09722656 1782.41568359 1243.23742188 1783.28644531 1242.3515625 1784.18359375 C1241.57506348 1784.97693115 1240.79856445 1785.77026855 1239.99853516 1786.58764648 C1238.0625 1788.3125 1238.0625 1788.3125 1236.0625 1788.3125 C1236.0625 1788.9725 1236.0625 1789.6325 1236.0625 1790.3125 C1234.58509827 1791.77113342 1234.58509827 1791.77113342 1232.54711914 1793.46118164 C1228.26678139 1797.10322083 1224.27496347 1800.95503297 1220.30859375 1804.93359375 C1219.60404556 1805.63718521 1218.89949738 1806.34077667 1218.17359924 1807.06568909 C1216.69596633 1808.54264648 1215.21957543 1810.02084742 1213.74438477 1811.50024414 C1211.50583519 1813.74415085 1209.26199527 1815.98266704 1207.01757812 1818.22070312 C1205.57259596 1819.66634618 1204.12792408 1821.11229945 1202.68359375 1822.55859375 C1202.02298447 1823.2171788 1201.36237518 1823.87576385 1200.68174744 1824.55430603 C1196.86636258 1828.38865045 1193.2555792 1832.34042969 1189.71961975 1836.43299866 C1187.31015266 1839.16581059 1184.75342943 1841.72816675 1182.15625 1844.28125 C1181.62785522 1844.80585815 1181.09946045 1845.33046631 1180.55505371 1845.87097168 C1178.33630416 1848.07366115 1176.11151227 1850.27020837 1173.88720703 1852.46728516 C1168.26384602 1858.02796276 1162.69073075 1863.57145329 1157.55664062 1869.59570312 C1155.19587889 1872.30826465 1152.63599407 1874.80382301 1150.0625 1877.3125 C1146.07411994 1881.24640584 1142.27086942 1885.25182405 1138.63671875 1889.51953125 C1137.0148281 1891.36679629 1135.31589795 1893.09006714 1133.5625 1894.8125 C1131.26923964 1897.07047943 1129.09821972 1899.37246504 1127 1901.8125 C1123.46415985 1905.9176024 1119.76919323 1909.8624991 1116.0625 1913.8125 C1111.93631654 1918.21240536 1107.85133685 1922.62550449 1103.921875 1927.203125 C1100.7111211 1930.8455769 1097.38191846 1934.38123873 1094.06005859 1937.92236328 C1091.23668352 1940.88082963 1091.23668352 1940.88082963 1089.0625 1944.3125 C1088.4025 1944.3125 1087.7425 1944.3125 1087.0625 1944.3125 C1086.84980469 1944.84359375 1086.63710937 1945.3746875 1086.41796875 1945.921875 C1084.54002402 1949.23398502 1081.98208177 1951.82182368 1079.375 1954.5625 C1078.28048673 1955.72975351 1077.18673255 1956.89771929 1076.09375 1958.06640625 C1075.30484375 1958.90776123 1075.30484375 1958.90776123 1074.5 1959.76611328 C1072.19308572 1962.24777005 1069.97661428 1964.80370066 1067.76171875 1967.3671875 C1065.76843572 1969.6491529 1063.72756973 1971.88478574 1061.6875 1974.125 C1057.73878555 1978.49535684 1054.0162279 1983.01553079 1050.3125 1987.59375 C1047.41892111 1991.09015782 1044.36900817 1994.42758132 1041.3125 1997.78125 C1038.98387947 2000.4009481 1036.76687053 2003.0876531 1034.5625 2005.8125 C1031.6543662 2009.4072765 1028.67708668 2012.89510628 1025.5625 2016.3125 C1021.71739125 2020.53614277 1018.09491829 2024.8994793 1014.50390625 2029.33984375 C1011.78530861 2032.65000824 1008.99179904 2035.8875821 1006.1875 2039.125 C1001.69775884 2044.31908397 997.41125048 2049.6347888 993.20751953 2055.06176758 C989.94310509 2059.25244355 986.54473892 2063.30163204 983.0625 2067.3125 C978.64397792 2072.40659589 974.40753977 2077.60586417 970.27075195 2082.93066406 C966.82598014 2087.36026924 963.30354097 2091.71981682 959.75 2096.0625 C953.24370229 2104.03008962 946.9198645 2112.13315998 940.63476562 2120.27587891 C939.2537611 2122.06475154 937.86973976 2123.85122288 936.484375 2125.63671875 C930.84877259 2132.92381392 925.32070941 2140.28856809 919.80322266 2147.6652832 C915.73735131 2153.09614753 911.63487564 2158.49655274 907.5 2163.875 C896.60716084 2178.06657482 886.1224474 2192.56025018 875.67138672 2207.07861328 C873.51352038 2210.07474029 871.35155519 2213.06789623 869.18920898 2216.06079102 C868.10633321 2217.55971992 867.02381257 2219.05890544 865.94165039 2220.55834961 C863.21412648 2224.33729066 860.48228001 2228.11297295 857.7421875 2231.8828125 C852.16358951 2239.56602973 846.65529554 2247.28546506 841.30078125 2255.12670898 C837.0084047 2261.41097775 832.64467971 2267.64416351 828.27172852 2273.87255859 C826.53277402 2276.35076761 824.79704437 2278.8312023 823.0625 2281.3125 C822.41055664 2282.24336426 821.75861328 2283.17422852 821.08691406 2284.13330078 C814.26312892 2293.9271283 807.66518783 2303.86880681 801.0625 2313.8125 C788.38839757 2332.89978526 788.38839757 2332.89978526 783.2109375 2340.328125 C779.25783252 2346.00271437 775.44722856 2351.75841587 771.6875 2357.5625 C771.04031006 2358.55846191 770.39312012 2359.55442383 769.72631836 2360.58056641 C767.83651539 2363.49000684 765.94934047 2366.40113781 764.0625 2369.3125 C763.11342134 2370.77352851 762.16421687 2372.23447531 761.21484375 2373.6953125 C753.10103788 2386.19381361 745.08317353 2398.75412452 737.0625 2411.3125 C736.45470703 2412.26350586 735.84691406 2413.21451172 735.22070312 2414.19433594 C726.07489811 2428.50928931 717.03765229 2442.88998678 708.0625 2457.3125 C707.51770996 2458.18696777 706.97291992 2459.06143555 706.41162109 2459.96240234 C671.82329345 2515.51012877 638.62374459 2571.95624612 606.2109375 2628.796875 C603.90977917 2632.83166129 601.60094536 2636.86197442 599.2890625 2640.890625 C590.63315351 2655.98221581 582.11098311 2671.14070334 573.69335938 2686.36669922 C572.25360917 2688.96730191 570.8085958 2691.56482323 569.359375 2694.16015625 C564.76549791 2702.38853923 560.23669161 2710.65014512 555.75 2718.9375 C555.2027124 2719.94804443 554.6554248 2720.95858887 554.09155273 2721.99975586 C551.30398689 2727.15220795 548.52701719 2732.31003383 545.765625 2737.4765625 C539.32872075 2749.49147661 532.63110517 2761.28127719 525.52441406 2772.91210938 C523.60513641 2776.06346841 521.7117347 2779.22995897 519.81884766 2782.3972168 C508.49073963 2801.34699237 497.02418068 2820.21469026 485.375 2838.96875 C482.25737344 2843.99032854 479.16384964 2849.02652804 476.0715332 2854.0637207 C469.29157338 2865.10582616 462.4500048 2876.10415625 455.50244141 2887.04150391 C454.0112977 2889.39325344 452.52630937 2891.74879051 451.04296875 2894.10546875 C444.9199305 2903.83162285 438.73355751 2913.51315842 432.46777344 2923.14794922 C431.06023504 2925.31598872 429.65845753 2927.48765817 428.2578125 2929.66015625 C419.0058589 2943.98507051 409.52997884 2958.16020882 400.05412292 2972.33747864 C397.37070997 2976.35236096 394.69169429 2980.37013257 392.01573181 2984.38998413 C388.31413739 2989.94930091 384.60771589 2995.50397099 380.8125 3001 C380.3676123 3001.64533691 379.92272461 3002.29067383 379.46435547 3002.95556641 C361.59828167 3028.827404 343.40410444 3054.51637502 324.0625 3079.3125 C323.64468262 3079.85116699 323.22686523 3080.38983398 322.79638672 3080.94482422 C311.02177762 3096.12403302 298.77820714 3110.91259324 286.0625 3125.3125 C285.24265625 3126.24578125 284.4228125 3127.1790625 283.578125 3128.140625 C277.75614942 3134.63008823 271.65629411 3140.8452188 265.51705933 3147.03317261 C264.10640907 3148.45572059 262.6997449 3149.88221788 261.29321289 3151.30883789 C249.60100851 3163.01567712 236.45580739 3172.66920391 223.0625 3182.3125 C222.43923828 3182.7677002 221.81597656 3183.22290039 221.17382812 3183.69189453 C155.88209625 3231.10436385 67.19854881 3241.70291552 -10.77587891 3230.04467773 C-60.70230482 3222.06227564 -108.2117017 3202.57976877 -148.26025391 3171.60791016 C-149.64929028 3170.53509691 -151.04802633 3169.47485573 -152.44921875 3168.41796875 C-154.64285059 3166.75145732 -156.79491966 3165.04417452 -158.9375 3163.3125 C-159.8759375 3162.5596875 -160.814375 3161.806875 -161.78125 3161.03125 C-169.8720098 3154.38991433 -177.33666722 3147.1273789 -184.75 3139.75 C-185.2376886 3139.26748779 -185.7253772 3138.78497559 -186.22784424 3138.2878418 C-192.92875405 3131.64304784 -199.05773875 3124.69455933 -204.9375 3117.3125 C-205.836533 3116.23851039 -206.74029027 3115.16842334 -207.65234375 3114.10546875 C-213.8803541 3106.80479581 -219.49122624 3099.20552617 -224.9375 3091.3125 C-225.33936523 3090.73693359 -225.74123047 3090.16136719 -226.15527344 3089.56835938 C-263.10717151 3036.50769671 -283.21837594 2972.5465844 -287.9375 2908.3125 C-288.02507568 2907.12688477 -288.11265137 2905.94126953 -288.20288086 2904.71972656 C-289.02004021 2892.83611242 -289.13808687 2880.97082379 -289.125 2869.0625 C-289.12439575 2868.03815857 -289.1237915 2867.01381714 -289.12316895 2865.95843506 C-289.0321734 2808.61015525 -282.86274731 2751.4109442 -270.9375 2695.3125 C-270.79161438 2694.6243219 -270.64572876 2693.9361438 -270.49542236 2693.22711182 C-265.90221982 2671.6386294 -260.48340486 2650.39840686 -253.9375 2629.3125 C-253.72349548 2628.62041443 -253.50949097 2627.92832886 -253.28900146 2627.215271 C-241.01882131 2587.59010606 -226.49342102 2548.75465843 -210.9375 2510.3125 C-210.44926758 2509.10368164 -209.96103516 2507.89486328 -209.45800781 2506.64941406 C-200.88152049 2485.49488341 -191.80304745 2464.54654611 -182.79296875 2443.57421875 C-182.37082092 2442.59096619 -181.9486731 2441.60771362 -181.51373291 2440.59466553 C-179.67302175 2436.31478852 -177.82413167 2432.0396297 -175.92919922 2427.78344727 C-172.41814583 2419.8963548 -169.23477516 2411.95663834 -166.36929321 2403.80786133 C-149.58335423 2356.22027654 -130.28958365 2309.47573773 -109.9375 2263.3125 C-109.6251239 2262.60373718 -109.3127478 2261.89497437 -108.99090576 2261.16473389 C-100.45710718 2241.81164632 -91.8370155 2222.50064921 -82.9375 2203.3125 C-82.40979004 2202.17216309 -81.88208008 2201.03182617 -81.33837891 2199.85693359 C-73.79616075 2183.56407786 -66.10699744 2167.34812582 -58.26953125 2151.1953125 C-56.22932473 2146.98952689 -54.20217802 2142.778335 -52.19921875 2138.5546875 C-45.41370805 2124.26035638 -38.38177999 2110.09312157 -31.3125 2095.9375 C-30.82508331 2094.96007843 -30.33766663 2093.98265686 -29.83547974 2092.97561646 C-23.69611941 2080.6711908 -17.42951357 2068.44548655 -10.98699951 2056.29711914 C-9.56336018 2053.60499605 -8.15875918 2050.903209 -6.7578125 2048.19921875 C-0.50704756 2036.13701096 5.88001043 2024.15924666 12.43798828 2012.26123047 C13.5583493 2010.22760854 14.67637277 2008.19269765 15.79248047 2006.15673828 C25.20247598 1988.99583095 34.97825215 1972.08548831 45.0625 1955.3125 C45.66449219 1954.30703125 46.26648437 1953.3015625 46.88671875 1952.265625 C53.2566986 1941.63493016 59.78654975 1931.14847156 66.625 1920.8125 C73.38402962 1910.5720454 79.44262747 1900.03496403 85.38818359 1889.30761719 C88.32830533 1884.04815183 91.35465688 1878.83867352 94.375 1873.625 C99.31448335 1865.08643091 104.227072 1856.53332431 109.11239624 1847.9637146 C114.94258707 1837.73694034 120.82851403 1827.54490579 126.77587891 1817.38574219 C131.23166344 1809.76344222 135.62647146 1802.10718689 140 1794.4375 C148.25415636 1779.96299631 156.57967372 1765.53028154 164.91699219 1751.10351562 C166.77852672 1747.88181725 168.63948839 1744.65978921 170.5 1741.4375 C171.11552734 1740.37144531 171.73105469 1739.30539062 172.36523438 1738.20703125 C177.31703042 1729.62254403 182.23074868 1721.01669707 187.13986206 1712.40777588 C192.29666608 1703.36778292 197.51793769 1694.36724679 202.77587891 1685.38574219 C207.23166614 1677.7634376 211.62610049 1670.10697834 216 1662.4375 C223.64455278 1649.03753625 231.30151189 1635.64554194 239.0625 1622.3125 C239.49030762 1621.57354492 239.91811523 1620.83458984 240.35888672 1620.07324219 C243.48010979 1614.70457769 246.53616669 1609.70769753 250.8125 1605.1875 C262.47072384 1592.64297844 270.28331488 1575.91170285 278.53710938 1561.05029297 C279.96577817 1558.48609773 281.40930769 1555.93104546 282.859375 1553.37890625 C288.04891101 1544.20950504 292.77517208 1534.93769315 297.0625 1525.3125 C296.16789062 1526.0859375 295.27328125 1526.859375 294.3515625 1527.65625 C288.18996615 1532.96903319 282.0016529 1538.2130382 275.6171875 1543.2578125 C272.00397953 1546.16384827 268.48028263 1549.17145582 264.94897461 1552.17602539 C261.51659036 1555.09267061 258.0564826 1557.96950688 254.5625 1560.8125 C249.96001534 1564.55870845 245.42527589 1568.37772787 240.9050293 1572.22216797 C237.43006977 1575.17208904 233.91796927 1578.06914406 230.375 1580.9375 C225.97735904 1584.51416313 221.76981843 1588.25574823 217.58203125 1592.07421875 C215.03045083 1594.34097158 212.41078468 1596.48790087 209.75 1598.625 C204.29378595 1603.037887 199.17634549 1607.75721028 194.046875 1612.5390625 C189.50079437 1616.77659843 184.81519974 1620.83594176 180.0625 1624.83984375 C171.77229331 1631.84499005 163.83321948 1639.15835366 155.9609375 1646.62890625 C152.24758365 1650.15012902 148.46102633 1653.57979966 144.640625 1656.984375 C140.6289494 1660.60703963 136.6924062 1664.30950896 132.74755859 1668.00463867 C128.71180401 1671.78221539 124.64963383 1675.52813827 120.5625 1679.25 C116.83930032 1682.6496596 113.22525787 1686.11278063 109.6953125 1689.7109375 C107.29699717 1692.06335205 104.73693278 1694.21640431 102.1875 1696.40234375 C98.9510008 1699.31162336 95.95527292 1702.4487875 92.9453125 1705.58984375 C91.0625 1707.3125 91.0625 1707.3125 89.0625 1707.3125 C89.0625 1707.9725 89.0625 1708.6325 89.0625 1709.3125 C87.6051569 1710.75095463 87.6051569 1710.75095463 85.58277893 1712.42530823 C81.08478692 1716.25333397 76.90705374 1720.32694369 72.73803711 1724.50756836 C71.55346169 1725.6895153 71.55346169 1725.6895153 70.34495544 1726.89533997 C67.75741191 1729.47851307 65.17350741 1732.06529048 62.58984375 1734.65234375 C60.77973274 1736.46178034 58.96947338 1738.27106852 57.15907288 1740.08021545 C53.37419623 1743.86362164 49.5910761 1747.6487721 45.80932617 1751.43530273 C41.45547376 1755.79459594 37.098031 1760.15027539 32.73870653 1764.50409597 C28.5215378 1768.71615607 24.3072125 1772.93105241 20.09405708 1777.14712715 C18.31150149 1778.93034715 16.52821017 1780.71283202 14.74415398 1782.4945507 C12.24618967 1784.98995956 9.75148026 1787.48857911 7.25756836 1789.98803711 C6.52854309 1790.71503815 5.79951782 1791.44203918 5.04840088 1792.19107056 C1.04376356 1796.21212068 -2.78632347 1800.32989184 -6.48416805 1804.63543034 C-8.20021478 1806.61565922 -10.00409778 1808.47844268 -11.875 1810.3125 C-12.54273438 1810.9725 -13.21046875 1811.6325 -13.8984375 1812.3125 C-15.2578125 1813.64583333 -16.6171875 1814.97916667 -17.9765625 1816.3125 C-21.96862437 1820.25832177 -25.74704817 1824.30963983 -29.41015625 1828.5625 C-31.71975104 1831.20878763 -34.22534865 1833.6249056 -36.75 1836.0625 C-38.64282164 1838.00940226 -40.42439757 1839.99696948 -42.203125 1842.046875 C-45.92083185 1846.32679098 -49.78526499 1850.45115728 -53.6875 1854.5625 C-60.1700916 1861.42137009 -66.58003975 1868.33762328 -72.9375 1875.3125 C-74.7694867 1877.31373556 -76.6035076 1879.31310261 -78.4375 1881.3125 C-79.35420349 1882.31246625 -80.27087022 1883.31246619 -81.1875 1884.3125 C-86.6875 1890.3125 -86.6875 1890.3125 -88.06347656 1891.81347656 C-88.97700603 1892.81011319 -89.89041815 1893.80685741 -90.80371094 1894.80371094 C-93.14240938 1897.35608061 -95.48332914 1899.9063548 -97.828125 1902.453125 C-102.30246008 1907.31653269 -106.74028653 1912.20231605 -111.0703125 1917.1953125 C-113.44876798 1919.89222227 -115.87877006 1922.54060573 -118.3125 1925.1875 C-125.77948369 1933.31419176 -133.12955542 1941.51424386 -140.27832031 1949.92260742 C-143.7989897 1954.04138926 -147.42367248 1958.04332698 -151.125 1962 C-154.6908278 1965.81245566 -158.10851189 1969.6728506 -161.375 1973.75 C-164.88393322 1978.125022 -168.59596079 1982.23269159 -172.4375 1986.3125 C-177.0841361 1991.24767236 -181.45676249 1996.30725645 -185.6953125 2001.6015625 C-188.17656629 2004.60154531 -190.78615956 2007.4640203 -193.4375 2010.3125 C-196.91171336 2014.04575033 -200.23818926 2017.8362138 -203.4375 2021.8125 C-206.63683697 2025.78881881 -209.9635728 2029.5789576 -213.4375 2033.3125 C-217.64778406 2037.84235984 -221.61388214 2042.51542621 -225.4921875 2047.33203125 C-228.40753344 2050.88540019 -231.41549995 2054.34984593 -234.4375 2057.8125 C-238.26076173 2062.19453766 -242.02904701 2066.60310094 -245.6875 2071.125 C-248.51237839 2074.61485888 -251.41467579 2077.99260514 -254.4375 2081.3125 C-258.27819657 2085.53129623 -261.89660346 2089.88968295 -265.484375 2094.32421875 C-268.27201887 2097.71999512 -271.12939115 2101.04941489 -274 2104.375 C-278.06975998 2109.09487935 -282.02806532 2113.87748769 -285.890625 2118.76953125 C-288.2884403 2121.74849645 -290.76580438 2124.65575734 -293.25 2127.5625 C-297.07308237 2132.04104344 -300.76601604 2136.59743875 -304.375 2141.25 C-308.64758112 2146.7544959 -313.10084814 2152.06924894 -317.66113281 2157.33691406 C-321.21845538 2161.45188354 -324.65655421 2165.64337899 -328.03125 2169.91015625 C-330.03844075 2172.43971017 -332.07715331 2174.94075938 -334.125 2177.4375 C-343.70741758 2189.12739086 -353.21612555 2200.87480622 -362.64306641 2212.69042969 C-364.40585728 2214.89940415 -366.17158798 2217.10602024 -367.9375 2219.3125 C-368.56011719 2220.09109375 -369.18273438 2220.8696875 -369.82421875 2221.671875 C-371.45060726 2223.70410907 -373.0783902 2225.73519738 -374.70703125 2227.765625 C-381.04137133 2235.66679941 -387.3295984 2243.6019801 -393.57421875 2251.57421875 C-394.95330399 2253.33265122 -396.33552851 2255.08856979 -397.71875 2256.84375 C-402.5028492 2262.91619872 -407.25917351 2269.00747435 -411.96166992 2275.14355469 C-414.95923258 2279.05154013 -417.98286065 2282.93850168 -421.01391602 2286.82055664 C-426.50134383 2293.85134681 -431.93004178 2300.91873864 -437.26171875 2308.06835938 C-441.40424882 2313.61891476 -445.6052491 2319.12340309 -449.8125 2324.625 C-456.71631918 2333.66435034 -463.49417621 2342.78965996 -470.21533203 2351.96533203 C-471.96040613 2354.34371911 -473.71157617 2356.71749134 -475.46484375 2359.08984375 C-482.81836045 2369.04098743 -490.1008685 2379.04020038 -497.32861328 2389.08300781 C-498.94108339 2391.31746564 -500.56116983 2393.54619889 -502.18359375 2395.7734375 C-508.33672718 2404.23180337 -514.33857714 2412.7721084 -520.2097168 2421.42871094 C-523.45664731 2426.19967099 -526.79359391 2430.87916738 -530.25 2435.5 C-535.83970119 2442.9867106 -540.97454649 2450.76863568 -546.10473633 2458.57495117 C-549.15510258 2463.20294733 -552.24173313 2467.76852307 -555.546875 2472.21875 C-562.05675734 2481.08428077 -567.96864759 2490.36872606 -574 2499.5625 C-575.31192393 2501.55846081 -576.62401788 2503.55430989 -577.9362793 2505.55004883 C-581.07168861 2510.32029096 -584.20372606 2515.09273249 -587.33374023 2519.86651611 C-588.71875238 2521.97887575 -590.10434358 2524.09085352 -591.49023438 2526.20263672 C-605.65008085 2547.79150863 -619.54275912 2569.54827844 -633.17333984 2591.47509766 C-634.85928632 2594.18670435 -636.54859656 2596.89619048 -638.23828125 2599.60546875 C-652.15608259 2621.96112228 -665.55796344 2644.63193853 -678.9375 2667.3125 C-679.28317017 2667.89835876 -679.62884033 2668.48421753 -679.98498535 2669.08782959 C-690.15544071 2686.32982856 -700.19430987 2703.64239234 -710.08251953 2721.04785156 C-711.84259547 2724.14547403 -713.60662021 2727.24081865 -715.37109375 2730.3359375 C-721.47090347 2741.05837956 -727.43425752 2751.84624242 -733.28515625 2762.70654297 C-736.35054821 2768.395061 -739.45879878 2774.05463078 -742.625 2779.6875 C-755.00648589 2801.80714553 -766.56737343 2824.41035233 -778.19140625 2846.93359375 C-780.03967156 2850.51021455 -781.89419304 2854.08353933 -783.75 2857.65625 C-794.19199234 2877.76718582 -804.41021392 2897.96540587 -814.13671875 2918.43359375 C-815.99839174 2922.35033492 -817.8762362 2926.25860449 -819.76953125 2930.16015625 C-827.12997897 2945.34674563 -834.16817314 2960.66605359 -841.10766602 2976.0480957 C-843.22001742 2980.72965465 -845.3448411 2985.40535913 -847.4765625 2990.078125 C-853.91554847 3004.21133949 -860.16289325 3018.413436 -866.25048828 3032.70153809 C-873.30827446 3049.26096506 -880.59211051 3065.71546076 -887.96221924 3082.13800049 C-888.91882871 3084.27087023 -889.8734648 3086.40461306 -890.82763672 3088.53857422 C-899.53332871 3107.99440972 -908.65459758 3127.21974989 -918.03363037 3146.35948181 C-920.53643282 3151.47354046 -922.99012953 3156.6095094 -925.42333984 3161.75708008 C-930.73704351 3172.99369562 -936.37182557 3184.03425531 -942.19335938 3195.015625 C-943.77967513 3198.01417034 -945.35686723 3201.01726771 -946.9311676 3204.02212524 C-955.31657568 3220.01833928 -963.92330532 3235.82263842 -973.17626953 3251.33886719 C-975.00359165 3254.42408806 -976.79905657 3257.52625804 -978.58984375 3260.6328125 C-995.97970279 3290.64182176 -1015.30164174 3319.82538794 -1037.46240234 3346.53320312 C-1039.65497638 3349.17793659 -1041.82670508 3351.83940328 -1044 3354.5 C-1044.67160156 3355.31855469 -1045.34320312 3356.13710937 -1046.03515625 3356.98046875 C-1047.40931203 3358.66500879 -1048.74612758 3360.38024581 -1050.05859375 3362.11328125 C-1050.67863281 3362.83902344 -1051.29867187 3363.56476562 -1051.9375 3364.3125 C-1052.5975 3364.3125 -1053.2575 3364.3125 -1053.9375 3364.3125 C-1054.19023682 3364.8897583 -1054.44297363 3365.4670166 -1054.70336914 3366.06176758 C-1056.08722823 3368.5855652 -1057.65290878 3370.28673326 -1059.68359375 3372.32421875 C-1060.4327002 3373.07751465 -1061.18180664 3373.83081055 -1061.95361328 3374.60693359 C-1062.7526709 3375.39664551 -1063.55172852 3376.18635742 -1064.375 3377 C-1065.19468262 3377.81291504 -1066.01436523 3378.62583008 -1066.85888672 3379.46337891 C-1072.63662814 3385.1430185 -1078.47232967 3390.42067182 -1084.9375 3395.3125 C-1086.08781186 3396.2141141 -1087.23750861 3397.11651331 -1088.38671875 3398.01953125 C-1135.26446271 3434.43625133 -1191.03169189 3454.0034346 -1249.9375 3459.3125 C-1250.97527588 3459.40748779 -1252.01305176 3459.50247559 -1253.08227539 3459.6003418 C-1263.22110925 3460.43030528 -1273.33422264 3460.51389157 -1283.5 3460.5 C-1284.38755981 3460.49906342 -1285.27511963 3460.49812683 -1286.1895752 3460.49716187 C-1299.20106875 3460.46741578 -1312.05238474 3460.29317928 -1324.9375 3458.3125 C-1325.99759277 3458.15120605 -1327.05768555 3457.98991211 -1328.14990234 3457.82373047 C-1393.45655931 3447.59012885 -1447.10890728 3417.89327877 -1493.6875 3371.75 C-1495.00053101 3370.45666748 -1495.00053101 3370.45666748 -1496.34008789 3369.13720703 C-1502.30805561 3363.17657582 -1507.69230752 3356.91295541 -1512.9375 3350.3125 C-1513.97434246 3349.04635584 -1515.01311955 3347.78179094 -1516.0546875 3346.51953125 C-1526.4353564 3333.79495866 -1535.47064559 3320.37867696 -1543.9375 3306.3125 C-1544.63230469 3305.21292969 -1545.32710937 3304.11335938 -1546.04296875 3302.98046875 C-1580.92915672 3247.40106607 -1596.1433888 3179.06818732 -1600.9375 3114.3125 C-1601.0317627 3113.07282471 -1601.12602539 3111.83314941 -1601.22314453 3110.5559082 C-1602.27592343 3095.31214541 -1602.18325726 3080.02256777 -1602.1875 3064.75 C-1602.18794186 3064.01958622 -1602.18838371 3063.28917244 -1602.18883896 3062.53662491 C-1602.19633139 3038.85271214 -1601.61455272 3015.36476025 -1599.19073486 2991.78833008 C-1598.92586468 2989.19874366 -1598.6710075 2986.60829832 -1598.41748047 2984.01757812 C-1589.33823377 2892.03273112 -1570.50229976 2801.30870011 -1462.9375 2418.3125 C-1462.53919983 2417.08708496 -1462.14089966 2415.86166992 -1461.73052979 2414.59912109 C-1451.62716034 2383.51927174 -1441.43800778 2352.4709836 -1430.75830078 2321.58349609 C-1429.11124296 2316.81936977 -1427.47301614 2312.0522389 -1425.83569336 2307.28475952 C-1415.85688521 2278.23961951 -1405.62649555 2249.29101212 -1395.2094574 2220.40028381 C-1392.93915569 2214.10215642 -1390.68100364 2207.79990723 -1388.4375 2201.4921875 C-1377.57729898 2170.98651731 -1366.2506502 2140.65233472 -1354.9375 2110.3125 C-1354.51474792 2109.17828613 -1354.09199585 2108.04407227 -1353.65643311 2106.87548828 C-1342.60787235 2077.23626189 -1331.39134071 2047.66376242 -1320.02740479 2018.14404297 C-1318.95700349 2015.36316954 -1317.88735847 2012.58200626 -1316.81787109 2009.80078125 C-1301.10053891 1968.93846877 -1285.0859763 1928.1936001 -1268.9375 1887.5 C-1268.67895233 1886.84840786 -1268.42040466 1886.19681572 -1268.15402222 1885.52547836 C-1257.28800022 1858.14248533 -1246.39745905 1830.76991732 -1235.25 1803.5 C-1234.82884918 1802.46888092 -1234.40769836 1801.43776184 -1233.9737854 1800.37539673 C-1226.01954219 1780.90363677 -1217.98877687 1761.46423167 -1209.90625 1742.04541016 C-1208.31992016 1738.23348759 -1206.7375013 1734.41995944 -1205.1567688 1730.60571289 C-1189.76185515 1693.46269234 -1173.96391679 1656.48872584 -1157.93756104 1619.61407471 C-1156.91005505 1617.24933726 -1155.88341277 1614.88422629 -1154.85693359 1612.51904297 C-1145.00806024 1589.82999302 -1135.04684527 1567.19325943 -1124.96221924 1544.60803223 C-1123.91673531 1542.26598382 -1122.87208208 1539.92356641 -1121.82763672 1537.58105469 C-1106.12626193 1502.36963008 -1090.13769192 1467.29713067 -1073.9375 1432.3125 C-1073.62663452 1431.64114014 -1073.31576904 1430.96978027 -1072.9954834 1430.27807617 C-1069.51388933 1422.76018855 -1066.02490978 1415.24575506 -1062.52929688 1407.734375 C-1061.43073773 1405.37280982 -1060.33294339 1403.01090455 -1059.23632812 1400.6484375 C-1052.50470079 1386.14723661 -1045.70312204 1371.68680384 -1038.7331543 1357.2980957 C-1035.66369044 1350.94651472 -1032.66142093 1344.5702652 -1029.72485352 1338.15625 C-1022.72174088 1322.87251602 -1015.34671275 1307.77778938 -1007.9375 1292.6875 C-1007.39300201 1291.57804016 -1006.84850403 1290.46858032 -1006.2875061 1289.32550049 C-999.71502508 1275.94116596 -993.09540009 1262.58135637 -986.39831543 1249.25888062 C-982.93449474 1242.3560882 -979.56412772 1235.4133243 -976.25 1228.4375 C-969.92225629 1215.13759081 -963.42347229 1201.93835706 -956.5 1188.9375 C-951.29171851 1179.1567504 -946.37711124 1169.23055628 -941.4375 1159.3125 C-935.86116116 1148.11929387 -930.2669517 1136.94745965 -924.37890625 1125.9140625 C-921.8327547 1121.1401628 -919.35827491 1116.32994838 -916.87866211 1111.52124023 C-911.58330968 1101.25442103 -906.19617239 1091.05430172 -900.61547852 1080.93994141 C-895.89507069 1072.33637989 -891.44115938 1063.60207311 -886.97247314 1054.86630249 C-881.97955463 1045.11971753 -876.76389272 1035.53720228 -871.30883789 1026.03930664 C-868.3486633 1020.86862109 -865.53857935 1015.67240424 -862.9375 1010.3125 C-859.84993723 1003.956667 -856.44566744 997.82048336 -852.9375 991.6875 C-847.76688174 982.64804266 -842.80805426 973.51542331 -837.9375 964.3125 C-832.7175603 954.45727739 -827.39159017 944.68055103 -821.86450195 934.99291992 C-817.89017401 928.02187692 -814.000987 921.00685377 -810.13964844 913.97290039 C-802.878998 900.74964169 -795.45761325 887.6255929 -787.94198608 874.54582214 C-785.58860675 870.44979597 -783.24308219 866.34935587 -780.90234375 862.24609375 C-763.66386053 832.02945506 -746.24647982 801.91956789 -728.52001953 771.98632812 C-726.46667915 768.51700016 -724.41771318 765.04509885 -722.36865234 761.57324219 C-720.20103322 757.90182454 -718.03070657 754.23201201 -715.85986328 750.5625 C-714.46448341 748.20343259 -713.06965083 745.84404627 -711.67529297 743.484375 C-694.80138989 714.93437766 -694.80138989 714.93437766 -688.71533203 705.33129883 C-684.59503731 698.8176365 -680.61686699 692.21776071 -676.625 685.625 C-669.46696336 673.80955088 -662.24234668 662.0378484 -654.9375 650.3125 C-654.34759277 649.36455566 -653.75768555 648.41661133 -653.14990234 647.43994141 C-644.73835357 633.92793734 -636.24821887 620.46830647 -627.68457031 607.05224609 C-625.89866021 604.25159166 -624.11671028 601.44845468 -622.3359375 598.64453125 C-615.68352768 588.1712733 -608.99458673 577.72359458 -602.23779297 567.31738281 C-600.95928349 565.34608731 -599.68410247 563.37268453 -598.41015625 561.3984375 C-592.71857074 552.58036648 -586.99098597 543.78597129 -581.25 535 C-580.5492334 533.92693604 -579.8484668 532.85387207 -579.12646484 531.74829102 C-574.4363654 524.57633348 -569.70033717 517.43632414 -564.9375 510.3125 C-564.06485907 509.00406968 -563.1924248 507.69550148 -562.3203125 506.38671875 C-561.20703125 504.71679687 -560.09375 503.046875 -558.98046875 501.37695312 C-558.40619141 500.51553711 -558.40619141 500.51553711 -557.8203125 499.63671875 C-557.39468018 498.99855225 -556.96904785 498.36038574 -556.53051758 497.70288086 C-555.27153911 495.81373784 -554.01383506 493.92374552 -552.7565918 492.03344727 C-546.71359531 482.95161443 -540.62227156 473.90355194 -534.5 464.875 C-534.04084198 464.19762787 -533.58168396 463.52025574 -533.10861206 462.82235718 C-523.59824074 448.79371813 -514.01434237 434.82410103 -504.27441406 420.95361328 C-500.21776403 415.16806291 -496.22212511 409.34380089 -492.25 403.5 C-487.11561944 395.95931156 -481.79592671 388.58149138 -476.36621094 381.25195312 C-473.73959546 377.68636301 -471.15245638 374.0922591 -468.5625 370.5 C-468.01779053 369.74509277 -467.47308105 368.99018555 -466.91186523 368.21240234 C-464.17740761 364.42177002 -461.44559159 360.62924283 -458.71484375 356.8359375 C-451.44996918 346.75105004 -444.10824199 336.72566622 -436.72119141 326.72998047 C-434.9077338 324.27215715 -433.09962249 321.81048431 -431.29296875 319.34765625 C-422.75237464 307.71090982 -414.10077298 296.19416005 -405.046875 284.94921875 C-403.05536387 282.45982984 -401.08641672 279.95447987 -399.12280273 277.44311523 C-394.08312682 270.99810199 -388.96139334 264.62648293 -383.78564453 258.2902832 C-380.17496304 253.86153151 -376.63315424 249.38522071 -373.125 244.875 C-369.53191707 240.26364223 -365.80946296 235.82367639 -361.87890625 231.49609375 C-359.76174755 229.1148227 -357.75418329 226.6645396 -355.75 224.1875 C-347.53966156 214.08029027 -338.92430258 204.31886157 -330.12890625 194.71875 C-328.22378191 192.62684877 -326.35310939 190.51286615 -324.5 188.375 C-321.11518276 184.48046911 -317.62895437 180.68160375 -314.1340332 176.88623047 C-311.1238053 173.6152091 -308.1465525 170.31757251 -305.1875 167 C-302.123208 163.581297 -298.96670345 160.30862436 -295.6887207 157.09619141 C-294.08857232 155.46637346 -292.62680308 153.79226488 -291.16015625 152.04296875 C-285.75599021 145.83131644 -279.8595033 140.08579405 -274.03149414 134.27612305 C-272.0048702 132.25485732 -269.98364453 130.22830426 -267.96289062 128.20117188 C-256.59023587 116.82264702 -256.59023587 116.82264702 -250.67602539 111.8059082 C-247.37905853 108.97378543 -244.27294172 105.93287776 -241.125 102.9375 C-235.78178509 97.89157675 -230.36798388 93.0430294 -224.61328125 88.46484375 C-222.2000218 86.52366717 -219.85397713 84.52106138 -217.51635742 82.48999023 C-198.42627391 65.98579093 -177.11206777 51.23947578 -154.85595703 39.34814453 C-152.92918029 38.30800875 -151.02487059 37.23391394 -149.12109375 36.15234375 C-116.16380518 17.70753239 -79.12342145 7.60945489 -41.9375 2.3125 C-40.13526978 2.04215942 -40.13526978 2.04215942 -38.29663086 1.76635742 C-25.55796582 -0.02158424 -12.84373283 -0.04279017 0 0 Z " fill="#1891EB" transform="translate(1602.9375,0.6875)"/>
</svg>
